<svg xmlns="http://www.w3.org/2000/svg" viewBox="0 0 24 24" height="48" width="48"><g><path d="M10,19.45c-7.62.12-4.38.12-7.71-.27-.5-.06-.73-.43-.87-.88-.26-.84-.19-1-.07-9.53a20.55,20.55,0,0,1,.21-5.08C1.84,2.62,1.55,2.27,3,2.3,3,2.65,2.9,4,2.93,4.19c.1.78.86.66,1.16.74,1.55.38,2.13-.79,2-2.42a2.64,2.64,0,0,0,1.49.05c0,.11-.09,1.41-.07,1.59.1.77.85.66,1.16.74,1.53.36,2.11-.76,2-2.36.69.21.74.17,1.77-.06,0,.11-.08,1.41-.06,1.54a.69.69,0,0,0,.53.64c1.64.44,2.59,0,2.65-1.77a8.28,8.28,0,0,1,1,.09c.26,0,.46.09.48.29l.38,7.09a.3.3,0,1,0,.6,0A19.58,19.58,0,0,0,18,3.1c-.24-1.06-1.34-1-2.43-.93A5.45,5.45,0,0,0,15.13.39,1.47,1.47,0,0,0,13,.54a2.82,2.82,0,0,0-.41,1,3.36,3.36,0,0,0-2,.16,3.52,3.52,0,0,0-.34-1.2A1.47,1.47,0,0,0,8.11.68a2.67,2.67,0,0,0-.36.87A3.42,3.42,0,0,0,6,1.68,3.15,3.15,0,0,0,5.66.58,1.18,1.18,0,0,0,4.44.2c-.81.13-1.12.69-1.3,1.48a2.51,2.51,0,0,0-1.6.26C1,2.29,1,3,.85,3.49A20.9,20.9,0,0,0,.33,8.77C.14,13.56.18,12,.12,15.61c0,1.94,0,4.42,2.09,4.58,3.42.25.13.38,7.83-.06A.34.34,0,1,0,10,19.45ZM13.48,1.8c.08-1.53,1-1.15,1.08-.85a6.24,6.24,0,0,1,0,2.27c-.17.56-.45.43-1,.41C13.59,3,13.43,2.59,13.48,1.8Zm-4.7-.73c.2-.4.79-.13.88-.16a6.49,6.49,0,0,1,0,2.45c-.09.31-.27.53-.66.41,0,0-.22,0-.38,0a2,2,0,0,0,.06-.31A5.88,5.88,0,0,1,8.78,1.07Zm-4.59.05C4.39.71,5,1,5.07,1a6.49,6.49,0,0,1,0,2.45c-.09.3-.27.52-.66.4,0,0-.22,0-.38,0,0-.12.07-.26.07-.31A5.69,5.69,0,0,1,4.19,1.12Z" fill="#191919" fill-rule="evenodd"></path><path d="M14.19,8.44a.4.4,0,0,0,.06-.55c-.22-.32-5.8-.79-8.52-.62-3,.2-2.63.71-2.13.83C4.66,8.42,14.17,8.46,14.19,8.44Z" fill="#09f353" fill-rule="evenodd"></path><path d="M11,11.61c-.32-.08-2.8-.21-3.28-.21s-3.92.1-4,.48a.3.3,0,0,0,.06.25,5.6,5.6,0,0,0,1.93.35A28.14,28.14,0,0,0,11,12.35C11.41,12.35,11.54,11.75,11,11.61Z" fill="#09f353" fill-rule="evenodd"></path><path d="M3.92,16.4a11.58,11.58,0,0,0,4.67.07.34.34,0,0,0,0-.48,8.9,8.9,0,0,0-3-.44C3.29,15.65,2.85,16.17,3.92,16.4Z" fill="#09f353" fill-rule="evenodd"></path><path d="M22.51,14.56a5.93,5.93,0,0,0-9.51.59c-1.68,2.48-.81,6.13.87,7.2a.31.31,0,1,0,.34-.51c-1.33-.93-1.93-4.13-.42-6.13a5,5,0,0,1,7.81-.4c2.48,2.93,1,7.36-3.34,7.87A5.61,5.61,0,0,1,15.88,23a.35.35,0,0,0-.22.67,6.41,6.41,0,0,0,2.68.29A5.68,5.68,0,0,0,22.51,14.56Z" fill="#191919" fill-rule="evenodd"></path><path d="M17.44,19a12.32,12.32,0,0,1,0,2.22.35.35,0,0,0,.67.21,8.88,8.88,0,0,0,.47-2.46,13.85,13.85,0,0,1,2.17,0,.35.35,0,0,0,.15-.69,9.62,9.62,0,0,0-2.1-.43c-.25,0-.18,0-.19-.13a23.11,23.11,0,0,0-.32-2.33s0-.59-.25-.63-.43.13-.38.63c-.11,1.4-.17,1.25-.22,2.45a10.1,10.1,0,0,0-2.5.53.31.31,0,1,0,.11.61C15.72,18.89,16.3,18.94,17.44,19Z" fill="#191919" fill-rule="evenodd"></path></g></svg>