<svg xmlns="http://www.w3.org/2000/svg" fill="none" viewBox="0 0 24 24" height="48" width="48"><path fill="#78eb7b" d="M0.85402 15.6459C0.741814 15.758 0.652796 15.891 0.59206 16.0375C0.531324 16.1839 0.500061 16.3409 0.500061 16.4994C0.500061 16.658 0.531324 16.815 0.59206 16.9614C0.652796 17.1079 0.741814 17.2409 0.85402 17.3529L6.64602 23.1459C6.87281 23.3719 7.17989 23.4988 7.50002 23.4988C7.82015 23.4988 8.12723 23.3719 8.35402 23.1459L23.146 8.35295C23.2582 8.24093 23.3472 8.10789 23.408 7.96144C23.4687 7.81499 23.5 7.65799 23.5 7.49945C23.5 7.3409 23.4687 7.18391 23.408 7.03745C23.3472 6.891 23.2582 6.75796 23.146 6.64595L20.854 4.35295C20.7419 4.24071 20.6088 4.15167 20.4623 4.09092C20.3157 4.03017 20.1587 3.9989 20 3.9989C19.8414 3.9989 19.6843 4.03017 19.5378 4.09092C19.3912 4.15167 19.2581 4.24071 19.146 4.35295L7.50002 15.9999L4.85402 13.3529C4.74192 13.2407 4.6088 13.1517 4.46226 13.0909C4.31572 13.0302 4.15865 12.9989 4.00002 12.9989C3.84139 12.9989 3.68432 13.0302 3.53778 13.0909C3.39124 13.1517 3.25812 13.2407 3.14602 13.3529L0.85402 15.6459Z"></path><path fill="#c9f7ca" d="M7.49997 19.5L21.75 5.25002L20.85 4.35002C20.7379 4.23778 20.6047 4.14874 20.4582 4.08799C20.3117 4.02724 20.1546 3.99597 19.996 3.99597C19.8373 3.99597 19.6803 4.02724 19.5337 4.08799C19.3872 4.14874 19.2541 4.23778 19.142 4.35002L7.49997 16L4.85397 13.353C4.74187 13.2408 4.60875 13.1517 4.46221 13.091C4.31568 13.0302 4.1586 12.999 3.99997 12.999C3.84134 12.999 3.68427 13.0302 3.53773 13.091C3.3912 13.1517 3.25807 13.2408 3.14597 13.353L2.24597 14.253L7.49997 19.5Z"></path><path stroke="#191919" stroke-linecap="round" stroke-linejoin="round" d="M0.85402 15.6459C0.741814 15.758 0.652796 15.891 0.59206 16.0375C0.531324 16.1839 0.500061 16.3409 0.500061 16.4994C0.500061 16.658 0.531324 16.815 0.59206 16.9614C0.652796 17.1079 0.741814 17.2409 0.85402 17.3529L6.64602 23.1459C6.87281 23.3719 7.17989 23.4988 7.50002 23.4988C7.82015 23.4988 8.12723 23.3719 8.35402 23.1459L23.146 8.35295C23.2582 8.24093 23.3472 8.10789 23.408 7.96144C23.4687 7.81499 23.5 7.65799 23.5 7.49945C23.5 7.3409 23.4687 7.18391 23.408 7.03745C23.3472 6.891 23.2582 6.75796 23.146 6.64595L20.854 4.35295C20.7419 4.24071 20.6088 4.15167 20.4623 4.09092C20.3157 4.03017 20.1587 3.9989 20 3.9989C19.8414 3.9989 19.6843 4.03017 19.5378 4.09092C19.3912 4.15167 19.2581 4.24071 19.146 4.35295L7.50002 15.9999L4.85402 13.3529C4.74192 13.2407 4.6088 13.1517 4.46226 13.0909C4.31572 13.0302 4.15865 12.9989 4.00002 12.9989C3.84139 12.9989 3.68432 13.0302 3.53778 13.0909C3.39124 13.1517 3.25812 13.2407 3.14602 13.3529L0.85402 15.6459Z"></path></svg>