<svg xmlns="http://www.w3.org/2000/svg" fill="none" viewBox="0 0 24 24" height="48" width="48"><path fill="#ffffff" d="M19.475 13.1L14.75 8.369L8.65 10.931C8.28591 11.0349 7.95432 11.2299 7.6866 11.4976C7.41888 11.7653 7.22386 12.0969 7.12001 12.461L4.36601 22.79C4.33893 22.8855 4.33784 22.9866 4.36285 23.0827C4.38787 23.1788 4.43808 23.2665 4.5083 23.3367C4.57852 23.4069 4.66621 23.4571 4.76231 23.4822C4.85842 23.5072 4.95946 23.5061 5.05501 23.479L15.384 20.73C15.748 20.626 16.0795 20.4309 16.3472 20.1632C16.6149 19.8955 16.81 19.564 16.914 19.2L19.475 13.1Z"></path><path fill="#c9f7ca" d="M4.552 23.361C4.61953 23.4197 4.70033 23.4612 4.78744 23.4817C4.87454 23.5023 4.96534 23.5013 5.052 23.479L15.384 20.73C15.748 20.626 16.0795 20.4309 16.3472 20.1632C16.6149 19.8955 16.81 19.564 16.914 19.2L19.475 13.1L17.147 10.77L4.552 23.361Z"></path><path stroke="#191919" stroke-linecap="round" stroke-linejoin="round" d="M1.5 4.5H8.5"></path><path stroke="#191919" stroke-linecap="round" stroke-linejoin="round" d="M5 1V8"></path><path fill="#78eb7b" d="M19.394 5.138L22.706 8.45C22.8935 8.63753 22.9988 8.89184 22.9988 9.157C22.9988 9.42217 22.8935 9.67647 22.706 9.864L19.473 13.1L14.747 8.371L17.98 5.138C18.1675 4.95053 18.4218 4.84521 18.687 4.84521C18.9522 4.84521 19.2065 4.95053 19.394 5.138V5.138Z"></path><path stroke="#191919" stroke-linecap="round" stroke-linejoin="round" d="M19.475 13.1L14.75 8.369L8.65 10.931C8.28591 11.0349 7.95432 11.2299 7.6866 11.4976C7.41888 11.7653 7.22386 12.0969 7.12001 12.461L4.36601 22.79C4.33893 22.8855 4.33784 22.9866 4.36285 23.0827C4.38787 23.1788 4.43808 23.2665 4.5083 23.3367C4.57852 23.4069 4.66621 23.4571 4.76231 23.4822C4.85842 23.5072 4.95946 23.5061 5.05501 23.479L15.384 20.73C15.748 20.626 16.0795 20.4309 16.3472 20.1632C16.6149 19.8955 16.81 19.564 16.914 19.2L19.475 13.1Z"></path><path stroke="#191919" stroke-linecap="round" stroke-linejoin="round" d="M4.508 23.337L12.014 15.831"></path><path stroke="#191919" stroke-linecap="round" stroke-linejoin="round" d="M19.394 5.138L22.706 8.45C22.8935 8.63753 22.9988 8.89184 22.9988 9.157C22.9988 9.42217 22.8935 9.67647 22.706 9.864L19.473 13.1L14.747 8.371L17.98 5.138C18.1675 4.95053 18.4218 4.84521 18.687 4.84521C18.9522 4.84521 19.2065 4.95053 19.394 5.138V5.138Z"></path></svg>