<svg xmlns="http://www.w3.org/2000/svg" viewBox="0 0 24 24" height="48" width="48"><g><path d="M2,10.09A12.22,12.22,0,0,0,3.14,11.9,10.9,10.9,0,0,0,4.6,13.48a10.45,10.45,0,0,0,4.16,2.39A.39.39,0,1,0,9,15.13,10.17,10.17,0,0,1,5.45,12.6a15.15,15.15,0,0,1-1.26-1.5c-.3-.38-.39-.45-.65-.8C2.84,9.48,1.75,9.62,2,10.09Z" fill="#191919"></path><path d="M21.66,2.92a.43.43,0,0,0-.55,0,.37.37,0,0,0,0,.54,2.16,2.16,0,0,1,.39,2.75,6.82,6.82,0,0,1-4.09,2.56,32.35,32.35,0,0,1-6.49.7,16.77,16.77,0,0,1-6.29-1A5.63,5.63,0,0,1,3.79,8a4.58,4.58,0,0,1-.74-.5c-1.2-1-1.52-1.83-1.21-2.61C2.39,3.5,4.42,2.47,6.11,2A22.5,22.5,0,0,1,8.77,1.3,20.61,20.61,0,0,1,11.49,1a23.15,23.15,0,0,1,4.22.19,26.71,26.71,0,0,1,4.14.9.34.34,0,0,0,.21-.65A26,26,0,0,0,15.82.35,25,25,0,0,0,11.46,0,21.1,21.1,0,0,0,8.59.25a24.65,24.65,0,0,0-2.81.6C3.73,1.42,1.32,2.74.64,4.4A2.83,2.83,0,0,0,.86,6.91,5.7,5.7,0,0,0,2.1,8.27c.45.38.91.79,1,.87a7.46,7.46,0,0,0,1,.47,16.21,16.21,0,0,0,5.42,1,31.17,31.17,0,0,0,8.06-.91A9,9,0,0,0,22,7a1.61,1.61,0,0,0,.27-.48C22.73,5.37,23,3.86,21.66,2.92Z" fill="#09f353"></path><path d="M21.91,7.9a7.24,7.24,0,0,1-1.19,2.15,11.56,11.56,0,0,1-1.23,1.6A13.19,13.19,0,0,1,18,13.05a13.55,13.55,0,0,1-4.21,2.33.38.38,0,0,0-.25.26s-.07-.05-.11-.05A.39.39,0,0,0,13,16c-.07.75,0,1.86,0,2.79a2.37,2.37,0,0,1-.24,1,3,3,0,0,1-.41.51c-.44.45-1,.9-1.39,1.27l-.51.58-.08-1.14c-.09-1-.18-2-.22-3,0-.68-.06-1.35-.07-2a.34.34,0,0,0-.32-.35.35.35,0,0,0-.36.33c-.07.85-.12,1.71-.15,2.56S9.16,20.1,9.15,21v1.6c0,.21-.1.61-.07.79a.76.76,0,0,0,.24.48.68.68,0,0,0,.73.13,2.34,2.34,0,0,0,.75-.45,12.55,12.55,0,0,0,1.07-1.16c.33-.39.88-.88,1.3-1.37a4.2,4.2,0,0,0,.53-.79A3.63,3.63,0,0,0,14,18.79c0-.9-.16-1.93-.16-2.68a.44.44,0,0,0,.2,0A13.78,13.78,0,0,0,18.75,14a10.33,10.33,0,0,0,1.71-1.5A9.86,9.86,0,0,0,21.57,11a1.89,1.89,0,0,1,.64.78,3.77,3.77,0,0,1,.1,2.49A4,4,0,0,1,21,16a6.47,6.47,0,0,1-2,1.13,3.92,3.92,0,0,1-4.25-.66.39.39,0,0,0-.59.5,4.8,4.8,0,0,0,5.2,1.32A6.61,6.61,0,0,0,21.87,17a4.87,4.87,0,0,0,1.6-2.41A5,5,0,0,0,23,11.37a2.64,2.64,0,0,0-1.06-1,5.1,5.1,0,0,0,.85-2.74C22.76,7.18,22.25,7.36,21.91,7.9Z" fill="#191919"></path></g></svg>