<svg xmlns="http://www.w3.org/2000/svg" fill="none" viewBox="0 0 24 24" height="48" width="48"><path fill="#ff808c" d="M7.49997 12L1.20697 18.293C1.0195 18.4805 0.914185 18.7348 0.914185 19C0.914185 19.2652 1.0195 19.5195 1.20697 19.707L4.29297 22.793C4.4805 22.9805 4.73481 23.0858 4.99997 23.0858C5.26514 23.0858 5.51944 22.9805 5.70697 22.793L12 16.5L18.293 22.793C18.4805 22.9805 18.7348 23.0858 19 23.0858C19.2651 23.0858 19.5194 22.9805 19.707 22.793L22.793 19.707C22.9804 19.5195 23.0858 19.2652 23.0858 19C23.0858 18.7348 22.9804 18.4805 22.793 18.293L16.5 12L22.793 5.707C22.9804 5.51947 23.0858 5.26517 23.0858 5C23.0858 4.73484 22.9804 4.48053 22.793 4.293L19.707 1.207C19.5194 1.01953 19.2651 0.914215 19 0.914215C18.7348 0.914215 18.4805 1.01953 18.293 1.207L12 7.5L5.70697 1.207C5.51944 1.01953 5.26514 0.914215 4.99997 0.914215C4.73481 0.914215 4.4805 1.01953 4.29297 1.207L1.20697 4.293C1.0195 4.48053 0.914185 4.73484 0.914185 5C0.914185 5.26517 1.0195 5.51947 1.20697 5.707L7.49997 12Z"></path><path fill="#ffbfc5" d="M1.20697 19.707L2.74997 21.25L21.25 2.75L19.707 1.207C19.5194 1.01953 19.2651 0.914215 19 0.914215C18.7348 0.914215 18.4805 1.01953 18.293 1.207L12 7.5L5.70697 1.207C5.51944 1.01953 5.26514 0.914215 4.99997 0.914215C4.73481 0.914215 4.4805 1.01953 4.29297 1.207L1.20697 4.293C1.0195 4.48053 0.914185 4.73484 0.914185 5C0.914185 5.26517 1.0195 5.51947 1.20697 5.707L7.49997 12L1.20697 18.293C1.0195 18.4805 0.914185 18.7348 0.914185 19C0.914185 19.2652 1.0195 19.5195 1.20697 19.707V19.707Z"></path><path stroke="#191919" stroke-linecap="round" stroke-linejoin="round" d="M7.49997 12L1.20697 18.293C1.0195 18.4805 0.914185 18.7348 0.914185 19C0.914185 19.2652 1.0195 19.5195 1.20697 19.707L4.29297 22.793C4.4805 22.9805 4.73481 23.0858 4.99997 23.0858C5.26514 23.0858 5.51944 22.9805 5.70697 22.793L12 16.5L18.293 22.793C18.4805 22.9805 18.7348 23.0858 19 23.0858C19.2651 23.0858 19.5194 22.9805 19.707 22.793L22.793 19.707C22.9804 19.5195 23.0858 19.2652 23.0858 19C23.0858 18.7348 22.9804 18.4805 22.793 18.293L16.5 12L22.793 5.707C22.9804 5.51947 23.0858 5.26517 23.0858 5C23.0858 4.73484 22.9804 4.48053 22.793 4.293L19.707 1.207C19.5194 1.01953 19.2651 0.914215 19 0.914215C18.7348 0.914215 18.4805 1.01953 18.293 1.207L12 7.5L5.70697 1.207C5.51944 1.01953 5.26514 0.914215 4.99997 0.914215C4.73481 0.914215 4.4805 1.01953 4.29297 1.207L1.20697 4.293C1.0195 4.48053 0.914185 4.73484 0.914185 5C0.914185 5.26517 1.0195 5.51947 1.20697 5.707L7.49997 12Z"></path></svg>