<svg xmlns="http://www.w3.org/2000/svg" viewBox="0 0 24 24" height="48" width="48"><g><path d="M23.92,23.21a9.94,9.94,0,0,0-3-3.31,4.14,4.14,0,0,0-1.91-7.18,4.6,4.6,0,0,0-5.5,4.73c.1,2.25,2.25,3.95,3.74,3.8a.31.31,0,0,0-.05-.61A2.15,2.15,0,0,1,15.71,20c-2.83-2.34-.25-6.85,3.09-6.11,2.61.53,3.6,3.56,1.35,5.73a4.26,4.26,0,0,1-1.44,1,.34.34,0,0,0,.23.65,4.73,4.73,0,0,0,1.46-.81,13.49,13.49,0,0,0,3,3.25A.35.35,0,0,0,23.92,23.21Z" fill="#191919" fill-rule="evenodd"></path><path d="M10.24,20.31c-7.88.13-4.53.13-8-.28-.52-.05-.76-.44-.9-.9-.27-.9-.2-1.1-.08-9.85A21.46,21.46,0,0,1,1.51,4c.27-1.1,0-1.46,1.51-1.44,0,.37-.14,1.72-.11,2,.1.81.88.68,1.19.77,1.61.38,2.21-.82,2.08-2.51a2.73,2.73,0,0,0,1.54,0c0,.11-.09,1.46-.07,1.64.1.81.88.68,1.19.77,1.58.38,2.19-.78,2.09-2.44.71.22.76.18,1.83-.06,0,.11-.09,1.46-.07,1.59a.71.71,0,0,0,.55.66c1.69.46,2.68,0,2.73-1.82a8.83,8.83,0,0,1,1,.09c.26,0,.48.09.5.3l.38,7.32a.32.32,0,0,0,.63,0,20.39,20.39,0,0,0,0-7.51c-.25-1.1-1.39-1-2.51-1A5.7,5.7,0,0,0,15.51.63,1.51,1.51,0,0,0,13.3.78a3.18,3.18,0,0,0-.42,1.06A3.51,3.51,0,0,0,10.82,2,3.42,3.42,0,0,0,10.47.77,1.52,1.52,0,0,0,8.26.93a2.67,2.67,0,0,0-.37.9A3.56,3.56,0,0,0,6.07,2,3.56,3.56,0,0,0,5.73.82,1.21,1.21,0,0,0,4.47.43C3.63.56,3.31,1.14,3.12,2a2.53,2.53,0,0,0-1.65.26C.93,2.58.9,3.34.76,3.83A21.29,21.29,0,0,0,.22,9.28c-.2,5-.15,3.36-.22,7.06,0,2,.05,4.58,2.17,4.74,3.53.26.13.39,8.08-.06A.36.36,0,0,0,10.24,20.31ZM13.81,2.08c.08-1.58,1-1.19,1.11-.88a6.24,6.24,0,0,1,0,2.35c-.17.58-.47.44-1.07.42C13.92,3.34,13.76,2.9,13.81,2.08ZM9,1.33c.21-.42.82-.14.91-.17a6.71,6.71,0,0,1,0,2.53c-.09.32-.28.54-.68.42,0,0-.23,0-.39,0a2.31,2.31,0,0,0,.06-.32A6.07,6.07,0,0,1,9,1.33Zm-4.74,0c.21-.43.82-.14.91-.17a6.92,6.92,0,0,1,0,2.53c-.1.31-.29.54-.69.42H4c0-.12.06-.26.06-.31A5.9,5.9,0,0,1,4.21,1.38Z" fill="#191919" fill-rule="evenodd"></path><path d="M14.54,8.94a.41.41,0,0,0,.06-.57c-.23-.33-6-.81-8.8-.64-3.13.21-2.71.73-2.2.85C4.7,8.92,14.52,9,14.54,8.94Z" fill="#78EB7B" fill-rule="evenodd"></path><path d="M11.2,12.21c-.33-.08-2.89-.21-3.38-.21s-4.06.1-4.18.5a.3.3,0,0,0,.06.25,5.88,5.88,0,0,0,2,.37A29.79,29.79,0,0,0,11.26,13C11.67,13,11.8,12.36,11.2,12.21Z" fill="#78EB7B" fill-rule="evenodd"></path><path d="M3.93,17.16a12.06,12.06,0,0,0,4.83.08.35.35,0,0,0,0-.5,8.85,8.85,0,0,0-3.07-.45C3.28,16.39,2.83,16.93,3.93,17.16Z" fill="#78EB7B" fill-rule="evenodd"></path></g></svg>