<svg xmlns="http://www.w3.org/2000/svg" fill="none" viewBox="0 0 24 24" height="48" width="48"><path fill="#78eb7b" d="M22.5 8.5H1.5C0.947715 8.5 0.5 8.94772 0.5 9.5V14.5C0.5 15.0523 0.947715 15.5 1.5 15.5H22.5C23.0523 15.5 23.5 15.0523 23.5 14.5V9.5C23.5 8.94772 23.0523 8.5 22.5 8.5Z"></path><path fill="#c9f7ca" d="M23.5 12V9.5C23.5 9.23478 23.3946 8.98043 23.2071 8.79289C23.0196 8.60536 22.7652 8.5 22.5 8.5H1.5C1.23478 8.5 0.98043 8.60536 0.792893 8.79289C0.605357 8.98043 0.5 9.23478 0.5 9.5V12H23.5Z"></path><path stroke="#191919" stroke-linecap="round" stroke-linejoin="round" d="M22.5 8.5H1.5C0.947715 8.5 0.5 8.94772 0.5 9.5V14.5C0.5 15.0523 0.947715 15.5 1.5 15.5H22.5C23.0523 15.5 23.5 15.0523 23.5 14.5V9.5C23.5 8.94772 23.0523 8.5 22.5 8.5Z"></path></svg>